<svg viewBox="0 0 1024 984" xmlns="http://www.w3.org/2000/svg" xmlns:xlink="http://www.w3.org/1999/xlink"><linearGradient id="a" gradientTransform="matrix(976 0 0 -982.2 -31200 758471.3)" gradientUnits="userSpaceOnUse" x1="32.492" x2="32.492" y1="771.134" y2="772.307"><stop offset="0" stop-color="#0066e4"/><stop offset="1" stop-color="#53deff"/></linearGradient><path d="m512 .9c-269.5 0-488 203.6-488 454.7 0 143.1 71 270.7 181.9 354.1v173.4l166.1-91.8c44.3 12.3 91.3 19 140 19 269.5 0 488-203.6 488-454.7s-218.5-454.7-488-454.7zm48.5 612.4-124.3-133.4-242.5 133.4 266.8-285 127.3 133.4 239.5-133.4z" fill="url(#a)"/><path d="m827.3 328.3-266.8 285-124.3-133.4-242.5 133.4 266.8-285 127.3 133.4" fill="#fff"/></svg>