<svg xmlns="http://www.w3.org/2000/svg" xmlns:xlink="http://www.w3.org/1999/xlink" width="1024" height="1024" viewBox="0 0 1024 1024"><defs><filter id="icon-a" width="110.8%" height="110.8%" x="-5.4%" y="-5.4%" filterUnits="objectBoundingBox"><feOffset dy="5" in="SourceAlpha" result="shadowOffsetOuter1"/><feGaussianBlur in="shadowOffsetOuter1" result="shadowBlurOuter1" stdDeviation="10"/><feColorMatrix in="shadowBlurOuter1" result="shadowMatrixOuter1" values="0 0 0 0 0 0 0 0 0 0 0 0 0 0 0 0 0 0 0.35 0"/><feMerge><feMergeNode in="shadowMatrixOuter1"/><feMergeNode in="SourceGraphic"/></feMerge></filter><polygon id="icon-b" points="0 .244 899.103 .244 899.103 899 0 899"/><linearGradient id="icon-c" x1="50%" x2="50%" y1="0%" y2="100%"><stop offset="0%" stop-color="#4FACF9"/><stop offset="100%" stop-color="#2D68F8"/></linearGradient></defs><g fill="none" fill-rule="evenodd" filter="url(#icon-a)" transform="translate(62 70)"><g transform="translate(0 .756)"><mask id="icon-d" fill="#fff"><use xlink:href="#icon-b"/></mask><path fill="url(#icon-c)" d="M899.1033,436.309 C899.0713,623.312 791.9763,780.396 615.8563,844.223 C552.1353,867.316 487.0113,875.493 419.6553,870.48 C402.4783,869.202 390.1073,866.253 373.0223,863.982 C354.7703,861.554 328.4783,853.881 310.0663,853.708 C262.9993,853.267 200.5383,920.335 167.2683,892.029 C147.4363,875.155 155.2153,828.907 155.1913,805.136 C155.1603,772.786 146.5433,762.821 124.6043,741.452 C81.0453,699.028 45.0913,643.101 24.4453,585.987 C-8.5727,494.651 -7.3257,388.794 23.2493,296.967 C89.0693,99.294 279.0613,-10.934 482.9783,1.142 C597.2983,7.913 707.4473,54.051 785.8633,139.002 C860.3803,219.73 899.1223,327.126 899.1033,436.309" mask="url(#icon-d)"/></g><path fill="#FFF" d="M723.3029,324.4996 C723.8029,329.0996 722.3029,333.6996 719.9029,337.4996 L594.5029,536.3996 C588.5029,545.9996 582.6029,556.1996 573.5029,563.2996 C547.9829,584.1826 511.1399,583.6766 486.2029,562.1006 L386.3029,487.1006 C379.6029,481.6996 370.3029,479.4996 362.0029,481.7996 C353.0029,484.2996 346.6029,491.6996 339.0029,496.7996 L211.0029,593.7996 C207.2709,596.8316 202.6109,598.4906 197.8029,598.4996 C189.6029,598.6006 181.8029,593.4996 178.3029,586.1006 C175.1579,579.4446 175.7269,571.6286 179.8029,565.4996 L299.6029,375.2996 C304.9029,367.2996 309.6029,358.7996 315.2029,350.8996 C336.2939,323.6216 374.4819,316.4836 404.0029,334.2996 C410.4029,338.3996 416.4029,343.2996 422.5029,347.7996 L514.5029,416.7996 C524.1109,424.1226 537.4399,424.0816 547.0029,416.6996 L686.3029,310.9996 C689.6029,308.3996 693.0029,305.9996 697.2029,304.9996 C709.2029,301.6996 722.9029,311.9996 723.3029,324.4996 Z"/></g></svg>