<svg xmlns="http://www.w3.org/2000/svg" viewBox="0 0 1024 984"><title>Caprine app icon - Created by Sindre Sorhus</title><linearGradient id="a" gradientUnits="userSpaceOnUse" x1="32.492" y1="771.134" x2="32.492" y2="772.307" gradientTransform="matrix(976 0 0 -982.2 -31200 758471.3)"><stop offset="0" stop-color="#0066E4"/><stop offset="1" stop-color="#53DEFF"/></linearGradient><path fill="url(#a)" d="M512 .9C242.5.9 24 204.5 24 455.6c0 143.1 71 270.7 181.9 354.1v173.4L372 891.3c44.3 12.3 91.3 19 140 19 269.5 0 488-203.6 488-454.7S781.5.9 512 .9zm48.5 612.4L436.2 479.9 193.7 613.3l266.8-285 127.3 133.4 239.5-133.4-266.8 285z"/><path fill="#FFF" d="M827.3 328.3l-266.8 285-124.3-133.4-242.5 133.4 266.8-285 127.3 133.4"/></svg>
